<svg width="367" height="412" viewBox="0 0 367 412" fill="none" xmlns="http://www.w3.org/2000/svg">
<path d="M359.21 53.2902L358.271 49.1502L354.61 47.0102C303.014 17.052 244.572 0.886857 184.915 0.0724155C125.257 -0.742026 66.3953 13.8216 14.0005 42.3602L10.2105 44.4402L9.21052 48.6302C3.40652 72.8383 0.476262 97.6461 0.480473 122.54C0.470473 243 69.0005 353 179.22 409.6L183.68 411.89L188.141 409.6C298.381 353 366.87 243 366.87 122.54C366.876 99.2452 364.307 76.0208 359.21 53.2902ZM183.68 389.88C82.5805 336 20.0005 234 20.0005 122.54C19.9938 100.634 22.4119 78.7944 27.2105 57.4202C75.7134 31.8527 129.852 18.8519 184.676 19.6066C239.5 20.3613 293.26 34.8473 341.041 61.7402C345.222 81.7365 347.327 102.111 347.32 122.54C347.32 124.06 347.32 125.54 347.32 127.09C278.6 114 293.661 108.89 251.671 108.95C249.271 108.95 246.901 109.05 244.541 109.21C235.101 100.36 228.29 93.2102 219.43 91.1402C217 90.5602 209.93 87.6602 207.25 92.3202C204.57 96.9802 206.75 107.22 207.36 117.56C184.25 126.38 163.36 140.86 144.57 155.69C138.13 160.77 139.65 179.92 124.23 195.34C113.81 204.43 102.16 213.17 93.9305 224.34C92.7974 225.867 92.2386 227.745 92.3519 229.643C92.4653 231.541 93.2437 233.339 94.5505 234.72C104.92 245.36 99.8405 262.86 124.131 288.21C130.811 295.21 142.58 295.82 150.22 289.94C154.148 286.925 158.338 284.267 162.74 282C172.99 276.13 204.16 262.43 261.5 270.93C290.18 236.23 288.11 201 288.11 201C288.34 202.68 296.11 238.69 264.69 275.63L263.69 276.79L262.181 276.56C246.242 273.977 230.065 273.186 213.951 274.2C236.021 278.06 254.89 290.94 267.58 308.44C269.83 311.55 270.87 316.2 271.58 320.72C246.633 348.825 216.866 372.246 183.68 389.88Z" fill="#862B44"/>
</svg>
